Coordinates
version=1
nRows=6
nColumns=63
inDegrees=yes

Units are S.I. units (second, meters, Newtons, ...)
If the header above contains a line with 'inDegrees', this indicates whether rotational values are in degrees (yes) or radians (no).

endheader
time	pelvis_tilt	pelvis_list	pelvis_rotation	pelvis_tx	pelvis_ty	pelvis_tz	hip_flexion_r	hip_adduction_r	hip_rotation_r	knee_angle_r	knee_angle_r_beta	ankle_angle_r	subtalar_angle_r	mtp_angle_r	hip_flexion_l	hip_adduction_l	hip_rotation_l	knee_angle_l	knee_angle_l_beta	ankle_angle_l	subtalar_angle_l	mtp_angle_l	L5_S1_Flex_Ext	L5_S1_Lat_Bending	L5_S1_axial_rotation	L4_L5_Flex_Ext	L4_L5_Lat_Bending	L4_L5_axial_rotation	L3_L4_Flex_Ext	L3_L4_Lat_Bending	L3_L4_axial_rotation	L2_L3_Flex_Ext	L2_L3_Lat_Bending	L2_L3_axial_rotation	L1_L2_Flex_Ext	L1_L2_Lat_Bending	L1_L2_axial_rotation	L1_T12_Flex_Ext	L1_T12_Lat_Bending	L1_T12_axial_rotation	Abs_r3	Abs_r2	Abs_r1	Abs_t1	Abs_t2	neck_flexion	neck_bending	neck_rotation	arm_flex_r	arm_add_r	arm_rot_r	elbow_flex_r	pro_sup_r	wrist_flex_r	wrist_dev_r	arm_flex_l	arm_add_l	arm_rot_l	elbow_flex_l	pro_sup_l	wrist_flex_l	wrist_dev_l
      0.00800000	    -43.81014842	      2.50669734	     -2.40027543	     -0.24659916	      1.04637235	      0.00050453	    110.73259099	     -6.56458476	     -0.74535122	     91.28439456	      1.59321324	     23.84169034	     10.50998895	      0.00000000	     83.78687235	     -8.53058217	     -2.35322724	     76.92237852	      1.34254877	      7.77059780	      3.62810564	      0.00000000	     -0.04778783	     -0.08411459	      0.32247294	     -0.08874678	     -0.11187240	      0.34262750	     -0.07851063	     -0.20451621	      0.34262750	     -0.05461671	     -0.20451621	      0.28216382	     -0.04437578	     -0.17152647	      0.26200927	     -0.02730597	     -0.13029350	      0.24185471	     -0.34134371	     -0.95152103	      1.79349777	      0.00000000	      0.00000000	      0.00000000	      0.00000000	      0.00000001	     75.91950395	     -8.50993772	     20.00033684	     29.98629735	     55.64875096	      0.00000000	      4.85549770	     76.14067254	     -6.35974095	     17.20621271	     27.70580405	     58.06232940	      0.00000000	      4.85549770
      0.01700000	    -43.72267398	      2.79137499	     -0.95039244	     -0.24664006	      1.04587097	     -0.00083031	    107.68108127	     -7.56258068	     -0.10419905	     84.70840604	      1.47844059	     21.66234944	     11.02623265	      0.00000000	     85.96147477	     -7.56425329	     -2.54777900	     83.37641501	      1.45519296	      6.59454197	      2.89791924	      0.00000000	     -0.04860535	     -0.14289902	     -0.00373688	     -0.09026500	     -0.19005570	     -0.00397043	     -0.07985373	     -0.34744468	     -0.00397043	     -0.05555105	     -0.34744468	     -0.00326977	     -0.04513493	     -0.29139968	     -0.00303621	     -0.02777310	     -0.22135058	     -0.00280266	     -0.34718316	     -1.61650230	     -0.02078339	      0.00000000	      0.00000000	      0.00000000	      0.00000000	      0.00000001	     75.78900078	     -7.85624709	     19.75400517	     29.39106935	     55.39792327	      0.00000000	      4.85891548	     76.31290235	     -6.60177800	     17.14743097	     27.47174526	     57.91804317	      0.00000000	      4.85891548
      0.02500000	    -43.71796045	      2.61435301	     -0.43502873	     -0.24645526	      1.04557991	     -0.00155321	    106.48328927	     -8.09740331	     -0.26529813	     82.57297725	      1.44117033	     20.81041836	     11.20077599	      0.00000000	     86.94464319	     -7.06519227	     -2.14404958	     85.55624139	      1.49323811	      6.90150049	      2.20614616	      0.00000000	     -0.04853666	     -0.13082959	     -0.10278680	     -0.09013744	     -0.17400335	     -0.10921097	     -0.07974089	     -0.31809906	     -0.10921097	     -0.05547255	     -0.31809906	     -0.08993845	     -0.04507115	     -0.26678769	     -0.08351427	     -0.02773385	     -0.20265503	     -0.07709010	     -0.34669254	     -1.47997045	     -0.57166934	      0.00000000	      0.00000000	      0.00000000	      0.00000000	      0.00000001	     75.75030406	     -7.86812344	     19.54251194	     29.46643527	     55.13452140	      0.00000000	      4.86256954	     76.28606756	     -6.64859859	     17.29345818	     27.58834939	     57.79561974	      0.00000000	      4.86256954
      0.03300000	    -43.73176503	      2.80622802	      0.20056749	     -0.24631548	      1.04524202	     -0.00202123	    105.19610043	     -8.60060486	     -0.01416295	     80.13995564	      1.39870609	     19.83454108	     11.29691721	      0.00000000	     88.03283234	     -6.44074483	     -2.00400510	     87.95547829	      1.53511269	      7.37611155	      2.07903922	      0.00000000	     -0.04812972	     -0.17852664	     -0.22674120	     -0.08938170	     -0.23744043	     -0.24091252	     -0.07907231	     -0.43406967	     -0.24091252	     -0.05500745	     -0.43406967	     -0.19839855	     -0.04469325	     -0.36405152	     -0.18422722	     -0.02750132	     -0.27653776	     -0.17005590	     -0.34378575	     -2.01952905	     -1.26106651	      0.00000000	      0.00000000	      0.00000000	      0.00000000	      0.00000001	     75.67313438	     -7.89242756	     19.48228011	     29.49221403	     55.07100243	      0.00000000	      4.86341824	     76.44103067	     -6.70074616	     17.35764877	     27.65841154	     57.77406354	      0.00000000	      4.86341824
      0.04200000	    -43.73152237	      2.16759419	      0.61731645	     -0.24606754	      1.04499830	     -0.00279194	    103.37319038	     -9.12302637	     -0.83785021	     77.20375995	      1.34745981	     18.53775994	     11.38686663	      0.00000000	     89.54115495	     -6.07829854	     -0.89334156	     90.80776197	      1.58489443	      7.92686612	      2.20531026	      0.00000000	     -0.04873259	     -0.11011379	     -0.29784954	     -0.09050129	     -0.14645135	     -0.31646514	     -0.08006277	     -0.26773068	     -0.31646514	     -0.05569648	     -0.26773068	     -0.26061835	     -0.04525308	     -0.22454405	     -0.24200276	     -0.02784580	     -0.17056627	     -0.22338716	     -0.34809202	     -1.24562927	     -1.65654981	      0.00000000	      0.00000000	      0.00000000	      0.00000000	      0.00000001	     75.70188489	     -7.99199838	     19.18433725	     29.38548649	     54.79876518	      0.00000000	      4.86694234	     76.40753439	     -6.71686119	     17.91537114	     27.83921692	     57.73799221	      0.00000000	      4.86694234
      0.05000000	    -43.75089215	      1.89839109	      1.16451078	     -0.24581263	      1.04480782	     -0.00349829	    101.48103199	     -9.62888003	     -1.31424485	     74.05706184	      1.29253956	     17.20664673	     11.29368671	      0.00000000	     91.06742300	     -5.52036857	     -0.12281291	     93.68159728	      1.63505232	      8.79049205	      2.49854923	      0.00000000	     -0.04687242	     -0.09433161	     -0.39470965	     -0.08704677	     -0.12546104	     -0.41937900	     -0.07700670	     -0.22935787	     -0.41937900	     -0.05357049	     -0.22935787	     -0.34537094	     -0.04352573	     -0.19236101	     -0.32070159	     -0.02678290	     -0.14611966	     -0.29603223	     -0.33480500	     -1.06709799	     -2.19525664	      0.00000000	      0.00000000	      0.00000000	      0.00000000	      0.00000001	     75.67963801	     -8.08985462	     19.02533602	     29.34013865	     54.58623444	      0.00000000	      4.86988582	     76.45299482	     -6.72974919	     18.42885842	     27.95705073	     57.71552675	      0.00000000	      4.86988582
